<svg xmlns="http://www.w3.org/2000/svg" viewBox="0 0 24 24" width="24" height="24">
  <path d="M12 14v8M12 18c-2 0-4-1-4-3 1 0 2.5 1 4 3z" stroke="#3fb950" stroke-width="1.5" stroke-linecap="round" stroke-linejoin="round" fill="none"/>
  <path d="M12 15C8 15 6 12 6 9c0-3 3-6 6-7 3 1 6 4 6 7 0 3-2 6-6 6z" fill="#f85149"/>
  <path d="M12 15c-2 0-3-2-3-4 0-2 1.5-4 3-5 1.5 1 3 3 3 5 0 2-1 4-3 4z" fill="#da3633"/>
  <path d="M12 15c-1 0-1.5-1-1.5-2.5 0-1.5 1-2.5 1.5-3 1 .5 1.5 1.5 1.5 3 0 1.5-.5 2.5-1.5 2.5z" fill="#ff7b72"/>
</svg>
